<?xml version="1.0" encoding="UTF-8"?>
<svg id="Layer_2" data-name="Layer 2" xmlns="http://www.w3.org/2000/svg" viewBox="0 0 766.83 766.83">
  <defs>
    <style>
      .cls-1 {
        fill: #e61e25;
      }

      .cls-2 {
        fill: #fff;
      }
    </style>
  </defs>
  <g id="Layer_1-2" data-name="Layer 1">
    <rect class="cls-1" width="766.83" height="766.83" rx="54.28" ry="54.28"/>
    <path class="cls-2" d="M658.43,287.4c-11.23-27.25-29.49-48.92-54.1-65.19-4.43-2.93-8.96-5.64-13.57-8.14l-48.96,8.39c11.76,6.44,22.46,14.5,31.63,24.85,9.78,11.03,17.14,23.42,21.63,37.55,6.71,21.22,6.84,42.55,2.03,64.11-4.95,22.2-14.38,42.4-26.67,61.42-13.05,20.18-28.73,38.08-46.65,54.06-23.61,21.06-49.68,38.39-78.21,52.08-20.06,9.61-40.76,17.45-62.42,22.71-13.8,3.36-27.71,5.88-41.88,7.37-17.14,1.82-34.22,1.5-51.28-.33-11.65-1.25-23.07-3.7-34.29-7.22-13.66-4.28-26.51-10.11-38.3-18.25-23-15.91-38.38-37.21-44.72-64.53-3.9-16.78-3.96-33.74-.69-50.74,4.72-24.56,14.91-46.77,28.54-67.5,16.37-24.83,36.82-45.9,59.94-64.49,20.73-16.68,43.27-30.4,67.3-41.67,15.5-7.28,31.48-13.32,47.99-18.11,16.33-4.73,32.85-8.12,49.68-10.14,5.72-.7,11.49-1,17.24-1.42,.84-.07,1.71,.12,2.57,.19,.26,.31,.52,.62,.77,.94-41.08,60.44-82.17,120.9-123.26,181.35-.35-.03-.69-.05-1.04-.07-.24-.95-.68-1.9-.65-2.82,.11-4.97,.35-9.95,.54-14.91,.03-1.06-.01-2.1-.03-3.36-.92-.18-1.67-.38-2.44-.43-13.29-.94-26.58-1.83-39.86-2.82-2.09-.15-3.73,.31-5.33,1.76-10.94,9.87-21.94,19.68-32.92,29.49-5.76,5.16-11.51,10.31-17.25,15.48-.7,.64-1.36,1.34-2.44,2.41,1.63,.39,2.75,.79,3.93,.95,9.15,1.19,18.31,2.3,27.47,3.48,10.75,1.37,21.48,2.79,32.2,4.13,9.69,1.22,19.38,2.34,29.07,3.56,10.3,1.29,20.57,2.68,30.87,3.98,9.07,1.15,18.13,2.26,27.2,3.42,14.37,1.8,28.7,3.63,43.07,5.43,10.38,1.31,20.79,2.56,31.17,3.88,9.59,1.22,19.16,2.55,28.76,3.74,6.44,.81,12.87,1.46,19.3,2.17,.69,.08,1.4-.05,2.56-.09-2.14-25.11-4.25-50.05-6.41-75.15-1.52-.18-2.63-.38-3.75-.43-23.16-.94-46.32-1.98-69.48-2.62-3.65-.11-7.44,1.34-11,2.6-16.98,6.02-33.89,12.21-50.83,18.31-1.3,.47-2.7,.65-4.05,.98l164.86-160.93,11.45-11.18,19.34-18.86,10.56-10.31h.01l67.07-65.47-18.54,.49-68.13,1.82c-11.7,.43-23.4,.89-35.1,1.25-2.47,.08-4.01,1.06-5.41,3.12-13.08,19.34-26.25,38.61-39.48,57.84-.77,1.11-2.22,2.2-3.51,2.43-3.82,.64-7.72,.84-11.61,1.23-17.85,1.8-35.49,4.81-52.96,9-21.13,5.07-41.62,11.87-61.7,20.07-22.9,9.32-44.97,20.34-65.88,33.54-10.8,6.83-21.51,13.84-31.82,21.37-24.3,17.78-46.38,38.08-66,60.93-18.34,21.37-34.04,44.53-45.98,70.13-9.31,19.98-16.36,40.74-19.09,62.64-2.59,20.53-2.03,41.05,3.17,61.32,5.46,21.32,15.46,40.2,29.77,56.76,11.59,13.4,25.42,24.18,40.87,32.89,12.56,7.09,25.69,12.92,39.5,16.93,9.69,2.81,19.66,4.59,29.53,6.74,13.16,2.85,26.56,3.62,39.94,4.19,9.46,.41,18.99-.14,28.46-.62,9.04-.46,18.15-.79,27.05-2.3,15.34-2.62,30.61-5.77,45.78-9.32,19.72-4.61,38.84-11.22,57.47-19.18,21.9-9.34,43.19-19.87,63.36-32.57,25.76-16.22,50.18-34.15,72.1-55.39,20.8-20.14,39.5-42.01,54.91-66.61,9.76-15.61,18.23-31.93,24.54-49.23,8.05-21.99,12.97-44.59,12.86-68.19-.1-18.97-3.2-37.36-10.39-54.86Z"/>
  </g>
</svg>